<?xml version="1.0" encoding="iso-8859-1"?>
<!-- Generator: Adobe Illustrator 16.0.0, SVG Export Plug-In . SVG Version: 6.00 Build 0)  -->
<!DOCTYPE svg PUBLIC "-//W3C//DTD SVG 1.1//EN" "http://www.w3.org/Graphics/SVG/1.1/DTD/svg11.dtd">
<svg version="1.1" id="Capa_1" xmlns="http://www.w3.org/2000/svg" xmlns:xlink="http://www.w3.org/1999/xlink" x="0px" y="0px"
	 width="447.976px" height="447.976px" viewBox="0 0 447.976 447.976" style="enable-background:new 0 0 447.976 447.976;"
	 xml:space="preserve">
<g>
	<path d="M364.868,0H83.104C67.633,0,55.088,12.538,55.088,28.017V419.96c0,15.469,12.544,28.016,28.016,28.016h281.764
		c15.47,0,28.019-12.547,28.019-28.016V28.017C392.887,12.547,380.338,0,364.868,0z M158.295,291.133
		c0,5.725-4.641,10.363-10.367,10.363h-39.721c-5.72,0-10.366-4.639-10.366-10.363v-39.728c0-5.724,4.637-10.363,10.366-10.363
		h39.721c5.721,0,10.367,4.64,10.367,10.363V291.133z M158.295,196.138c0,5.721-4.641,10.367-10.367,10.367h-39.721
		c-5.72,0-10.366-4.641-10.366-10.367v-39.727c0-5.72,4.637-10.366,10.366-10.366h39.721c5.721,0,10.367,4.641,10.367,10.366
		V196.138z M158.295,100.72c0,5.721-4.641,10.367-10.367,10.367h-39.721c-5.72,0-10.366-4.64-10.366-10.367V60.994
		c0-5.722,4.637-10.367,10.366-10.367h39.721c5.721,0,10.367,4.638,10.367,10.367V100.72z M254.274,386.991
		c0,5.72-4.641,10.365-10.356,10.365h-39.731c-5.72,0-10.366-4.642-10.366-10.365v-39.726c0-5.725,4.639-10.365,10.366-10.365
		h39.731c5.716,0,10.356,4.641,10.356,10.365V386.991z M254.274,291.133c0,5.725-4.641,10.363-10.356,10.363h-39.731
		c-5.72,0-10.366-4.639-10.366-10.363v-39.728c0-5.724,4.639-10.363,10.366-10.363h39.731c5.716,0,10.356,4.64,10.356,10.363
		V291.133z M350.932,291.133c0,5.725-4.639,10.363-10.358,10.363h-39.728c-5.721,0-10.367-4.639-10.367-10.363v-39.728
		c0-5.724,4.638-10.363,10.367-10.363h39.728c5.72,0,10.358,4.64,10.358,10.363V291.133z M254.274,196.138
		c0,5.721-4.641,10.367-10.356,10.367h-39.731c-5.72,0-10.366-4.641-10.366-10.367v-39.727c0-5.72,4.639-10.366,10.366-10.366
		h39.731c5.716,0,10.356,4.641,10.356,10.366V196.138z M254.274,100.72c0,5.721-4.641,10.367-10.356,10.367h-39.731
		c-5.72,0-10.366-4.64-10.366-10.367V60.994c0-5.722,4.639-10.367,10.366-10.367h39.731c5.716,0,10.356,4.638,10.356,10.367V100.72z
		 M350.127,196.138c0,5.721-4.641,10.367-10.364,10.367h-39.727c-5.724,0-10.364-4.641-10.364-10.367v-39.727
		c0-5.72,4.641-10.366,10.364-10.366h39.727c5.724,0,10.364,4.641,10.364,10.366V196.138z M350.127,100.72
		c0,5.721-4.641,10.367-10.364,10.367h-39.727c-5.724,0-10.364-4.64-10.364-10.367V60.994c0-5.722,4.641-10.367,10.364-10.367
		h39.727c5.724,0,10.364,4.638,10.364,10.367V100.72z"/>
</g>
<g>
</g>
<g>
</g>
<g>
</g>
<g>
</g>
<g>
</g>
<g>
</g>
<g>
</g>
<g>
</g>
<g>
</g>
<g>
</g>
<g>
</g>
<g>
</g>
<g>
</g>
<g>
</g>
<g>
</g>
</svg>
